<svg width="24" height="24" viewBox="0 0 24 24" fill="none" xmlns="http://www.w3.org/2000/svg">
<path d="M10.875 18.8885L4.275 12.2885C4.175 12.1885 4.104 12.0801 4.062 11.9635C4.02067 11.8468 4 11.7218 4 11.5885C4 11.4551 4.02067 11.3301 4.062 11.2135C4.104 11.0968 4.175 10.9885 4.275 10.8885L10.875 4.28846C11.0583 4.10513 11.2873 4.00913 11.562 4.00046C11.8373 3.99246 12.075 4.08846 12.275 4.28846C12.475 4.47179 12.5793 4.70079 12.588 4.97546C12.596 5.25079 12.5 5.48846 12.3 5.68846L7.4 10.5885H18.575C18.8583 10.5885 19.096 10.6841 19.288 10.8755C19.4793 11.0675 19.575 11.3051 19.575 11.5885C19.575 11.8718 19.4793 12.1091 19.288 12.3005C19.096 12.4925 18.8583 12.5885 18.575 12.5885H7.4L12.3 17.4885C12.4833 17.6718 12.5793 17.9051 12.588 18.1885C12.596 18.4718 12.5 18.7051 12.3 18.8885C12.1167 19.0885 11.8833 19.1885 11.6 19.1885C11.3167 19.1885 11.075 19.0885 10.875 18.8885Z" fill="#393939"/>
</svg>
