<svg width="24" height="24" viewBox="0 0 24 24" fill="none" xmlns="http://www.w3.org/2000/svg">
<mask id="mask0_81_25" style="mask-type:alpha" maskUnits="userSpaceOnUse" x="0" y="0" width="24" height="24">
<rect width="24" height="24" fill="#D9D9D9"/>
</mask>
<g mask="url(#mask0_81_25)">
<path d="M19.8 22.7L14.25 17.15C12.7667 18.35 11.1542 19.2917 9.41253 19.975C7.67086 20.6583 5.88336 21 4.05002 21C3.65002 21 3.37502 20.9 3.22502 20.7C3.07502 20.5 3.00002 20.25 3.00002 19.95V15.9C3.00002 15.6667 3.07502 15.4625 3.22502 15.2875C3.37502 15.1125 3.56669 15 3.80002 14.95L7.25002 14.25C7.43336 14.2167 7.66252 14.2417 7.93752 14.325C8.21252 14.4083 8.41669 14.5167 8.55002 14.65L10.9 17C11.2 16.8167 11.525 16.6083 11.875 16.375C12.225 16.1417 12.5334 15.9167 12.8 15.7L1.40002 4.29999L2.80002 2.89999L21.2 21.3L19.8 22.7ZM9.00003 17.9L7.35003 16.25L5.00002 16.75V18.95C5.68336 18.9 6.35836 18.7833 7.02502 18.6C7.69169 18.4167 8.35003 18.1833 9.00003 17.9ZM17.05 14.3L15.65 12.9C15.9 12.6167 16.1542 12.2917 16.4125 11.925C16.6709 11.5583 16.875 11.2167 17.025 10.9L14.6 8.44999C14.4667 8.31666 14.375 8.12916 14.325 7.88749C14.275 7.64583 14.2667 7.44999 14.3 7.29999L14.95 3.79999C15 3.56666 15.1125 3.37499 15.2875 3.22499C15.4625 3.07499 15.6667 2.99999 15.9 2.99999H19.95C20.25 2.99999 20.5 3.09999 20.7 3.29999C20.9 3.49999 21 3.74999 21 4.04999C21 5.88333 20.65 7.67083 19.95 9.41249C19.25 11.1542 18.2834 12.7833 17.05 14.3ZM17.95 8.99999C18.2334 8.34999 18.45 7.69166 18.6 7.02499C18.75 6.35833 18.8667 5.68333 18.95 4.99999H16.75L16.3 7.34999L17.95 8.99999Z" fill="#FFFFFF"/>
</g>
</svg>
