<svg width="25" height="25" viewBox="0 0 25 25" fill="none" xmlns="http://www.w3.org/2000/svg">
<mask id="mask0_56_290" style="mask-type:alpha" maskUnits="userSpaceOnUse" x="0" y="0" width="25" height="25">
<rect x="0.606781" y="0.429993" width="24" height="24" fill="#D9D9D9"/>
</mask>
<g mask="url(#mask0_56_290)">
<path d="M12.6068 14.43C11.7734 14.43 11.0651 14.1383 10.4818 13.555C9.89845 12.9717 9.60678 12.2633 9.60678 11.43V5.42999C9.60678 4.59666 9.89845 3.88833 10.4818 3.30499C11.0651 2.72166 11.7734 2.42999 12.6068 2.42999C13.4401 2.42999 14.1484 2.72166 14.7318 3.30499C15.3151 3.88833 15.6068 4.59666 15.6068 5.42999V11.43C15.6068 12.2633 15.3151 12.9717 14.7318 13.555C14.1484 14.1383 13.4401 14.43 12.6068 14.43ZM11.6068 21.43V18.355C9.87345 18.1217 8.44011 17.3467 7.30678 16.03C6.17345 14.7133 5.60678 13.18 5.60678 11.43H7.60678C7.60678 12.8133 8.09428 13.9925 9.06928 14.9675C10.0443 15.9425 11.2234 16.43 12.6068 16.43C13.9901 16.43 15.1693 15.9425 16.1443 14.9675C17.1193 13.9925 17.6068 12.8133 17.6068 11.43H19.6068C19.6068 13.18 19.0401 14.7133 17.9068 16.03C16.7734 17.3467 15.3401 18.1217 13.6068 18.355V21.43H11.6068ZM12.6068 12.43C12.8901 12.43 13.1276 12.3342 13.3193 12.1425C13.5109 11.9508 13.6068 11.7133 13.6068 11.43V5.42999C13.6068 5.14666 13.5109 4.90916 13.3193 4.71749C13.1276 4.52583 12.8901 4.42999 12.6068 4.42999C12.3234 4.42999 12.0859 4.52583 11.8943 4.71749C11.7026 4.90916 11.6068 5.14666 11.6068 5.42999V11.43C11.6068 11.7133 11.7026 11.9508 11.8943 12.1425C12.0859 12.3342 12.3234 12.43 12.6068 12.43Z" fill="#FFFFFF"/>
</g>
</svg>
