<svg width="25" height="25" viewBox="0 0 25 25" fill="none" xmlns="http://www.w3.org/2000/svg">
<mask id="mask0_115_7" style="mask-type:alpha" maskUnits="userSpaceOnUse" x="0" y="0" width="25" height="25">
<rect x="0.857147" y="0.714279" width="24" height="24" fill="#D9D9D9"/>
</mask>
<g mask="url(#mask0_115_7)">
<path d="M12.8571 20.7143C10.6238 20.7143 8.73215 19.9393 7.18215 18.3893C5.63215 16.8393 4.85715 14.9476 4.85715 12.7143C4.85715 10.4809 5.63215 8.58928 7.18215 7.03928C8.73215 5.48928 10.6238 4.71428 12.8571 4.71428C14.0071 4.71428 15.1071 4.95178 16.1571 5.42678C17.2071 5.90178 18.1071 6.58095 18.8571 7.46428V4.71428H20.8571V11.7143H13.8571V9.71428H18.0571C17.5238 8.78095 16.7946 8.04761 15.8696 7.51428C14.9446 6.98095 13.9405 6.71428 12.8571 6.71428C11.1905 6.71428 9.77381 7.29761 8.60715 8.46428C7.44048 9.63095 6.85715 11.0476 6.85715 12.7143C6.85715 14.3809 7.44048 15.7976 8.60715 16.9643C9.77381 18.1309 11.1905 18.7143 12.8571 18.7143C14.1405 18.7143 15.2988 18.3476 16.3321 17.6143C17.3655 16.8809 18.0905 15.9143 18.5071 14.7143H20.6071C20.1405 16.4809 19.1905 17.9226 17.7571 19.0393C16.3238 20.1559 14.6905 20.7143 12.8571 20.7143Z" fill="#ffffff"/>
</g>
</svg>
