<svg width="19" height="18" viewBox="0 0 19 18" fill="none" xmlns="http://www.w3.org/2000/svg">
<mask id="mask0_9_205" style="mask-type:alpha" maskUnits="userSpaceOnUse" x="0" y="0" width="19" height="18">
<rect x="0.5" width="18" height="18" fill="#D9D9D9"/>
</mask>
<g mask="url(#mask0_9_205)">
<path d="M14.75 6.75L13.8125 4.6875L11.75 3.75L13.8125 2.8125L14.75 0.75L15.6875 2.8125L17.75 3.75L15.6875 4.6875L14.75 6.75ZM14.75 17.25L13.8125 15.1875L11.75 14.25L13.8125 13.3125L14.75 11.25L15.6875 13.3125L17.75 14.25L15.6875 15.1875L14.75 17.25ZM7.25 15L5.375 10.875L1.25 9L5.375 7.125L7.25 3L9.125 7.125L13.25 9L9.125 10.875L7.25 15ZM7.25 11.3625L8 9.75L9.6125 9L8 8.25L7.25 6.6375L6.5 8.25L4.8875 9L6.5 9.75L7.25 11.3625Z" fill="white"/>
</g>
</svg>
